<svg xmlns="http://www.w3.org/2000/svg" xmlns:xlink="http://www.w3.org/1999/xlink" contentStyleType="text/css" height="735px" preserveAspectRatio="none" style="width:1992px;height:735px;background:#FFFFFF;" version="1.1" viewBox="0 0 1992 735" width="1992px" zoomAndPan="magnify"><defs/><g><!--cluster 2cd1713872694d6d593933cbc61eaafa--><g id="cluster_2cd1713872694d6d593933cbc61eaafa"><polygon fill="none" points="491,16,501,6,1043,6,1043,617.56,1033,627.56,491,627.56,491,16" style="stroke:#181818;stroke-width:1.0;"/><line style="stroke:#181818;stroke-width:1.0;" x1="1033" x2="1043" y1="16" y2="6"/><line style="stroke:#181818;stroke-width:1.0;" x1="491" x2="1033" y1="16" y2="16"/><line style="stroke:#181818;stroke-width:1.0;" x1="1033" x2="1033" y1="16" y2="627.56"/><text fill="#000000" font-family="sans-serif" font-size="14" font-weight="bold" lengthAdjust="spacing" textLength="89" x="718.5" y="31.9951">Archivebox</text></g><!--cluster a29d5a5b4f4a716bb07c1eb2e5404b76--><g id="cluster_a29d5a5b4f4a716bb07c1eb2e5404b76"><polygon fill="none" points="149,64.89,159,54.89,467,54.89,467,617.56,457,627.56,149,627.56,149,64.89" style="stroke:#181818;stroke-width:1.0;"/><line style="stroke:#181818;stroke-width:1.0;" x1="457" x2="467" y1="64.89" y2="54.89"/><line style="stroke:#181818;stroke-width:1.0;" x1="149" x2="457" y1="64.89" y2="64.89"/><line style="stroke:#181818;stroke-width:1.0;" x1="457" x2="457" y1="64.89" y2="627.56"/><text fill="#000000" font-family="sans-serif" font-size="14" font-weight="bold" lengthAdjust="spacing" textLength="175" x="216.5" y="80.8851">Archivebox_scheduler</text></g><!--cluster bb5459bf19132d4dc1340654c17331df--><g id="cluster_bb5459bf19132d4dc1340654c17331df"><polygon fill="none" points="1423,64.89,1433,54.89,1975,54.89,1975,617.56,1965,627.56,1423,627.56,1423,64.89" style="stroke:#181818;stroke-width:1.0;"/><line style="stroke:#181818;stroke-width:1.0;" x1="1965" x2="1975" y1="64.89" y2="54.89"/><line style="stroke:#181818;stroke-width:1.0;" x1="1423" x2="1965" y1="64.89" y2="64.89"/><line style="stroke:#181818;stroke-width:1.0;" x1="1965" x2="1965" y1="64.89" y2="627.56"/><text fill="#000000" font-family="sans-serif" font-size="14" font-weight="bold" lengthAdjust="spacing" textLength="43" x="1673.5" y="80.8851">Sonic</text></g><!--cluster 4ac408e357cb8d4ac930d803d394c2cf--><g id="cluster_4ac408e357cb8d4ac930d803d394c2cf"><polygon fill="none" points="1067,48.59,1077,38.59,1399,38.59,1399,380.27,1389,390.27,1067,390.27,1067,48.59" style="stroke:#181818;stroke-width:1.0;"/><line style="stroke:#181818;stroke-width:1.0;" x1="1389" x2="1399" y1="48.59" y2="38.59"/><line style="stroke:#181818;stroke-width:1.0;" x1="1067" x2="1389" y1="48.59" y2="48.59"/><line style="stroke:#181818;stroke-width:1.0;" x1="1389" x2="1389" y1="48.59" y2="390.27"/><text fill="#000000" font-family="sans-serif" font-size="14" font-weight="bold" lengthAdjust="spacing" textLength="49" x="1204.5" y="64.5851">Novnc</text></g><!--entity 573f1e98ab70d0f6a9b23f975fffa02d--><g id="elem_573f1e98ab70d0f6a9b23f975fffa02d"><rect fill="#F1F1F1" height="209.2656" rx="2.5" ry="2.5" style="stroke:#181818;stroke-width:0.5;" width="520" x="507" y="46"/><rect fill="#F1F1F1" height="10" style="stroke:#181818;stroke-width:0.5;" width="15" x="1007" y="51"/><rect fill="#F1F1F1" height="2" style="stroke:#181818;stroke-width:0.5;" width="4" x="1005" y="53"/><rect fill="#F1F1F1" height="2" style="stroke:#181818;stroke-width:0.5;" width="4" x="1005" y="57"/><text fill="#000000" font-family="sans-serif" font-size="14" font-weight="bold" lengthAdjust="spacing" textLength="87" x="522" y="78.9951">archivebox</text><text fill="#000000" font-family="sans-serif" font-size="14" lengthAdjust="spacing" textLength="4" x="522" y="95.292">&#160;</text><text fill="#000000" font-family="sans-serif" font-size="14" lengthAdjust="spacing" textLength="247" x="522" y="111.5889">image: archivebox/archivebox:latest</text><text fill="#000000" font-family="sans-serif" font-size="14" lengthAdjust="spacing" textLength="237" x="522" y="127.8857">environment: ALLOWED_HOSTS=*</text><text fill="#000000" font-family="sans-serif" font-size="14" lengthAdjust="spacing" textLength="238" x="522" y="144.1826">environment: PUBLIC_INDEX=True</text><text fill="#000000" font-family="sans-serif" font-size="14" lengthAdjust="spacing" textLength="281" x="522" y="160.4795">environment: PUBLIC_SNAPSHOTS=True</text><text fill="#000000" font-family="sans-serif" font-size="14" lengthAdjust="spacing" textLength="272" x="522" y="176.7764">environment: PUBLIC_ADD_VIEW=False</text><text fill="#000000" font-family="sans-serif" font-size="14" lengthAdjust="spacing" textLength="336" x="522" y="193.0732">environment: SEARCH_BACKEND_ENGINE=sonic</text><text fill="#000000" font-family="sans-serif" font-size="14" lengthAdjust="spacing" textLength="370" x="522" y="209.3701">environment: SEARCH_BACKEND_HOST_NAME=sonic</text><text fill="#000000" font-family="sans-serif" font-size="14" lengthAdjust="spacing" textLength="480" x="522" y="225.667">environment: SEARCH_BACKEND_PASSWORD=SomeSecretPassword</text><text fill="#000000" font-family="sans-serif" font-size="14" lengthAdjust="spacing" textLength="4" x="522" y="241.9639">&#160;</text></g><!--entity cf95a89145af9be4b4d8aca4fce40e30--><g id="elem_cf95a89145af9be4b4d8aca4fce40e30"><ellipse cx="893" cy="345.27" fill="#F1F1F1" rx="8" ry="8" style="stroke:#181818;stroke-width:0.5;"/><text fill="#000000" font-family="sans-serif" font-size="14" lengthAdjust="spacing" textLength="36" x="875" y="375.2651">8000</text></g><!--entity f34aef1a58f0eb95a93b03313ee2f7ad--><g id="elem_f34aef1a58f0eb95a93b03313ee2f7ad"><rect fill="#F1F1F1" height="39.2969" rx="2.5" ry="2.5" style="stroke:#181818;stroke-width:0.5;" width="65" x="669.5" y="572.27"/><polygon fill="#F1F1F1" points="717.5,577.27,717.5,591.27,729.5,591.27,729.5,583.27,723.5,577.27,717.5,577.27" style="stroke:#181818;stroke-width:0.5;"/><line style="stroke:#181818;stroke-width:0.5;" x1="723.5" x2="723.5" y1="577.27" y2="583.27"/><line style="stroke:#181818;stroke-width:0.5;" x1="729.5" x2="723.5" y1="583.27" y2="583.27"/><text fill="#000000" font-family="sans-serif" font-size="14" lengthAdjust="spacing" textLength="35" x="679.5" y="598.2651">/data</text></g><!--entity 6e1e2aee5073ff599ae019b9e3c10ae8--><g id="elem_6e1e2aee5073ff599ae019b9e3c10ae8"><rect fill="#F1F1F1" height="111.4844" rx="2.5" ry="2.5" style="stroke:#181818;stroke-width:0.5;" width="287" x="164.5" y="94.89"/><rect fill="#F1F1F1" height="10" style="stroke:#181818;stroke-width:0.5;" width="15" x="431.5" y="99.89"/><rect fill="#F1F1F1" height="2" style="stroke:#181818;stroke-width:0.5;" width="4" x="429.5" y="101.89"/><rect fill="#F1F1F1" height="2" style="stroke:#181818;stroke-width:0.5;" width="4" x="429.5" y="105.89"/><text fill="#000000" font-family="sans-serif" font-size="14" font-weight="bold" lengthAdjust="spacing" textLength="173" x="179.5" y="127.8851">archivebox_scheduler</text><text fill="#000000" font-family="sans-serif" font-size="14" lengthAdjust="spacing" textLength="4" x="179.5" y="144.182">&#160;</text><text fill="#000000" font-family="sans-serif" font-size="14" lengthAdjust="spacing" textLength="247" x="179.5" y="160.4789">image: archivebox/archivebox:latest</text><text fill="#000000" font-family="sans-serif" font-size="14" lengthAdjust="spacing" textLength="198" x="179.5" y="176.7757">environment: TIMEOUT=120</text><text fill="#000000" font-family="sans-serif" font-size="14" lengthAdjust="spacing" textLength="4" x="179.5" y="193.0726">&#160;</text></g><!--entity 6443834a5d658c1675703f5d4a8f4eb1--><g id="elem_6443834a5d658c1675703f5d4a8f4eb1"><rect fill="#F1F1F1" height="39.2969" rx="2.5" ry="2.5" style="stroke:#181818;stroke-width:0.5;" width="65" x="330.5" y="572.27"/><polygon fill="#F1F1F1" points="378.5,577.27,378.5,591.27,390.5,591.27,390.5,583.27,384.5,577.27,378.5,577.27" style="stroke:#181818;stroke-width:0.5;"/><line style="stroke:#181818;stroke-width:0.5;" x1="384.5" x2="384.5" y1="577.27" y2="583.27"/><line style="stroke:#181818;stroke-width:0.5;" x1="390.5" x2="384.5" y1="583.27" y2="583.27"/><text fill="#000000" font-family="sans-serif" font-size="14" lengthAdjust="spacing" textLength="35" x="340.5" y="598.2651">/data</text></g><!--entity 56a1a6d43969594db11fb860133bfdde--><g id="elem_56a1a6d43969594db11fb860133bfdde"><rect fill="#F1F1F1" height="111.4844" rx="2.5" ry="2.5" style="stroke:#181818;stroke-width:0.5;" width="520" x="1439" y="94.89"/><rect fill="#F1F1F1" height="10" style="stroke:#181818;stroke-width:0.5;" width="15" x="1939" y="99.89"/><rect fill="#F1F1F1" height="2" style="stroke:#181818;stroke-width:0.5;" width="4" x="1937" y="101.89"/><rect fill="#F1F1F1" height="2" style="stroke:#181818;stroke-width:0.5;" width="4" x="1937" y="105.89"/><text fill="#000000" font-family="sans-serif" font-size="14" font-weight="bold" lengthAdjust="spacing" textLength="42" x="1454" y="127.8851">sonic</text><text fill="#000000" font-family="sans-serif" font-size="14" lengthAdjust="spacing" textLength="4" x="1454" y="144.182">&#160;</text><text fill="#000000" font-family="sans-serif" font-size="14" lengthAdjust="spacing" textLength="228" x="1454" y="160.4789">image: valeriansaliou/sonic:latest</text><text fill="#000000" font-family="sans-serif" font-size="14" lengthAdjust="spacing" textLength="480" x="1454" y="176.7757">environment: SEARCH_BACKEND_PASSWORD=SomeSecretPassword</text><text fill="#000000" font-family="sans-serif" font-size="14" lengthAdjust="spacing" textLength="4" x="1454" y="193.0726">&#160;</text></g><!--entity e78a84f26360fb5a2dedec923aa57d84--><g id="elem_e78a84f26360fb5a2dedec923aa57d84"><rect fill="#F1F1F1" height="39.2969" rx="2.5" ry="2.5" style="stroke:#181818;stroke-width:0.5;" width="124" x="1562" y="572.27"/><polygon fill="#F1F1F1" points="1669,577.27,1669,591.27,1681,591.27,1681,583.27,1675,577.27,1669,577.27" style="stroke:#181818;stroke-width:0.5;"/><line style="stroke:#181818;stroke-width:0.5;" x1="1675" x2="1675" y1="577.27" y2="583.27"/><line style="stroke:#181818;stroke-width:0.5;" x1="1681" x2="1675" y1="583.27" y2="583.27"/><text fill="#000000" font-family="sans-serif" font-size="14" lengthAdjust="spacing" textLength="94" x="1572" y="598.2651">/etc/sonic.cfg</text></g><!--entity d183f5769e455a5b87e2f8eb3d64a028--><g id="elem_d183f5769e455a5b87e2f8eb3d64a028"><rect fill="#F1F1F1" height="39.2969" rx="2.5" ry="2.5" style="stroke:#181818;stroke-width:0.5;" width="158" x="1721" y="572.27"/><polygon fill="#F1F1F1" points="1862,577.27,1862,591.27,1874,591.27,1874,583.27,1868,577.27,1862,577.27" style="stroke:#181818;stroke-width:0.5;"/><line style="stroke:#181818;stroke-width:0.5;" x1="1868" x2="1868" y1="577.27" y2="583.27"/><line style="stroke:#181818;stroke-width:0.5;" x1="1874" x2="1868" y1="583.27" y2="583.27"/><text fill="#000000" font-family="sans-serif" font-size="14" lengthAdjust="spacing" textLength="128" x="1731" y="598.2651">/var/lib/sonic/store</text></g><!--entity 6434fea89d9a2babd2a581fac9c510da--><g id="elem_6434fea89d9a2babd2a581fac9c510da"><rect fill="#F1F1F1" height="144.0781" rx="2.5" ry="2.5" style="stroke:#181818;stroke-width:0.5;" width="300" x="1083" y="78.59"/><rect fill="#F1F1F1" height="10" style="stroke:#181818;stroke-width:0.5;" width="15" x="1363" y="83.59"/><rect fill="#F1F1F1" height="2" style="stroke:#181818;stroke-width:0.5;" width="4" x="1361" y="85.59"/><rect fill="#F1F1F1" height="2" style="stroke:#181818;stroke-width:0.5;" width="4" x="1361" y="89.59"/><text fill="#000000" font-family="sans-serif" font-size="14" font-weight="bold" lengthAdjust="spacing" textLength="48" x="1098" y="111.5851">novnc</text><text fill="#000000" font-family="sans-serif" font-size="14" lengthAdjust="spacing" textLength="4" x="1098" y="127.882">&#160;</text><text fill="#000000" font-family="sans-serif" font-size="14" lengthAdjust="spacing" textLength="189" x="1098" y="144.1789">image: theasp/novnc:latest</text><text fill="#000000" font-family="sans-serif" font-size="14" lengthAdjust="spacing" textLength="254" x="1098" y="160.4757">environment: DISPLAY_WIDTH=1920</text><text fill="#000000" font-family="sans-serif" font-size="14" lengthAdjust="spacing" textLength="260" x="1098" y="176.7726">environment: DISPLAY_HEIGHT=1080</text><text fill="#000000" font-family="sans-serif" font-size="14" lengthAdjust="spacing" textLength="212" x="1098" y="193.0695">environment: RUN_XTERM=no</text><text fill="#000000" font-family="sans-serif" font-size="14" lengthAdjust="spacing" textLength="4" x="1098" y="209.3664">&#160;</text></g><!--entity 94313489f64812be256d51c6ecc28768--><g id="elem_94313489f64812be256d51c6ecc28768"><ellipse cx="1233" cy="345.27" fill="#F1F1F1" rx="8" ry="8" style="stroke:#181818;stroke-width:0.5;"/><text fill="#000000" font-family="sans-serif" font-size="14" lengthAdjust="spacing" textLength="36" x="1215" y="375.2651">8080</text></g><!--entity b3bf60b851ebaeb2768b01a32e2ef32f--><g id="elem_b3bf60b851ebaeb2768b01a32e2ef32f"><polygon fill="#F1F1F1" points="16,129.34,26,119.34,130,119.34,130,171.9338,120,181.9338,16,181.9338,16,129.34" style="stroke:#181818;stroke-width:0.5;"/><line style="stroke:#181818;stroke-width:0.5;" x1="120" x2="130" y1="129.34" y2="119.34"/><line style="stroke:#181818;stroke-width:0.5;" x1="16" x2="120" y1="129.34" y2="129.34"/><line style="stroke:#181818;stroke-width:0.5;" x1="120" x2="120" y1="129.34" y2="181.9338"/><text fill="#000000" font-family="sans-serif" font-size="14" font-weight="bold" lengthAdjust="spacing" textLength="29" x="31" y="152.3351">dns</text><text fill="#000000" font-family="sans-serif" font-size="14" lengthAdjust="spacing" textLength="74" x="31" y="168.632">&#171;network&#187;</text></g><!--entity 1624c420083928ef3e240dd88f2e52f0--><g id="elem_1624c420083928ef3e240dd88f2e52f0"><ellipse cx="1086" cy="482.27" fill="#F1F1F1" rx="8" ry="8" style="stroke:#181818;stroke-width:0.5;"/><text fill="#000000" font-family="sans-serif" font-size="14" lengthAdjust="spacing" textLength="36" x="1068" y="512.2651">8000</text></g><!--entity 6e23fca666bced8cc41b2a8c5420fdea--><g id="elem_6e23fca666bced8cc41b2a8c5420fdea"><ellipse cx="1233" cy="482.27" fill="#F1F1F1" rx="8" ry="8" style="stroke:#181818;stroke-width:0.5;"/><text fill="#000000" font-family="sans-serif" font-size="14" lengthAdjust="spacing" textLength="102" x="1182" y="512.2651">127.0.0.18080</text></g><!--entity b86486e19bf8ab7f6de7806dc2438fad--><g id="elem_b86486e19bf8ab7f6de7806dc2438fad"><rect fill="#F1F1F1" height="39.2969" rx="2.5" ry="2.5" style="stroke:#181818;stroke-width:0.5;" width="69" x="422.5" y="690.56"/><polygon fill="#F1F1F1" points="474.5,695.56,474.5,709.56,486.5,709.56,486.5,701.56,480.5,695.56,474.5,695.56" style="stroke:#181818;stroke-width:0.5;"/><line style="stroke:#181818;stroke-width:0.5;" x1="480.5" x2="480.5" y1="695.56" y2="701.56"/><line style="stroke:#181818;stroke-width:0.5;" x1="486.5" x2="480.5" y1="701.56" y2="701.56"/><text fill="#000000" font-family="sans-serif" font-size="14" lengthAdjust="spacing" textLength="39" x="432.5" y="716.5551">./data</text></g><!--entity e869f2dedf089d6b2e606f58bdb940fe--><g id="elem_e869f2dedf089d6b2e606f58bdb940fe"><rect fill="#F1F1F1" height="39.2969" rx="2.5" ry="2.5" style="stroke:#181818;stroke-width:0.5;" width="101" x="1573.5" y="690.56"/><polygon fill="#F1F1F1" points="1657.5,695.56,1657.5,709.56,1669.5,709.56,1669.5,701.56,1663.5,695.56,1657.5,695.56" style="stroke:#181818;stroke-width:0.5;"/><line style="stroke:#181818;stroke-width:0.5;" x1="1663.5" x2="1663.5" y1="695.56" y2="701.56"/><line style="stroke:#181818;stroke-width:0.5;" x1="1669.5" x2="1663.5" y1="701.56" y2="701.56"/><text fill="#000000" font-family="sans-serif" font-size="14" lengthAdjust="spacing" textLength="71" x="1583.5" y="716.5551">./sonic.cfg</text></g><!--entity ed44feb30fb8bab96fd89e6692aedefb--><g id="elem_ed44feb30fb8bab96fd89e6692aedefb"><rect fill="#F1F1F1" height="39.2969" rx="2.5" ry="2.5" style="stroke:#181818;stroke-width:0.5;" width="111" x="1744.5" y="690.56"/><polygon fill="#F1F1F1" points="1838.5,695.56,1838.5,709.56,1850.5,709.56,1850.5,701.56,1844.5,695.56,1838.5,695.56" style="stroke:#181818;stroke-width:0.5;"/><line style="stroke:#181818;stroke-width:0.5;" x1="1844.5" x2="1844.5" y1="695.56" y2="701.56"/><line style="stroke:#181818;stroke-width:0.5;" x1="1850.5" x2="1844.5" y1="701.56" y2="701.56"/><text fill="#000000" font-family="sans-serif" font-size="14" lengthAdjust="spacing" textLength="81" x="1754.5" y="716.5551">./data/sonic</text></g><!--link 573f1e98ab70d0f6a9b23f975fffa02d to cf95a89145af9be4b4d8aca4fce40e30--><g id="link_573f1e98ab70d0f6a9b23f975fffa02d_cf95a89145af9be4b4d8aca4fce40e30"><path codeLine="58" d="M834.98,255.56 C857.06,289.32 878.33,321.83 887.82,336.35 " fill="none" id="573f1e98ab70d0f6a9b23f975fffa02d-cf95a89145af9be4b4d8aca4fce40e30" style="stroke:#181818;stroke-width:1.0;"/></g><!--link cf95a89145af9be4b4d8aca4fce40e30 to 1624c420083928ef3e240dd88f2e52f0--><g id="link_cf95a89145af9be4b4d8aca4fce40e30_1624c420083928ef3e240dd88f2e52f0"><path codeLine="59" d="M901.79,352.42 C933.95,374.91 1044.92,452.53 1077.15,475.08 " fill="none" id="cf95a89145af9be4b4d8aca4fce40e30-1624c420083928ef3e240dd88f2e52f0" style="stroke:#181818;stroke-width:1.0;"/></g><!--link f34aef1a58f0eb95a93b03313ee2f7ad to b86486e19bf8ab7f6de7806dc2438fad--><g id="link_f34aef1a58f0eb95a93b03313ee2f7ad_b86486e19bf8ab7f6de7806dc2438fad"><path codeLine="60" d="M669.21,608.48 C623.05,630.39 539.28,670.16 491.97,692.61 " fill="none" id="f34aef1a58f0eb95a93b03313ee2f7ad-b86486e19bf8ab7f6de7806dc2438fad" style="stroke:#181818;stroke-width:1.0;"/><text fill="#000000" font-family="sans-serif" font-size="13" lengthAdjust="spacing" textLength="14" x="595" y="656.6269">rw</text></g><!--link 573f1e98ab70d0f6a9b23f975fffa02d to f34aef1a58f0eb95a93b03313ee2f7ad--><g id="link_573f1e98ab70d0f6a9b23f975fffa02d_f34aef1a58f0eb95a93b03313ee2f7ad"><path codeLine="61" d="M751.6,255.74 C735.9,361.79 713.6591,512.1447 705.6891,565.9547 " fill="none" id="573f1e98ab70d0f6a9b23f975fffa02d-to-f34aef1a58f0eb95a93b03313ee2f7ad" style="stroke:#181818;stroke-width:1.0;stroke-dasharray:7.0,7.0;"/><polygon fill="#181818" points="704.81,571.89,710.0855,563.5732,705.5426,566.944,702.1718,562.4011,704.81,571.89" style="stroke:#181818;stroke-width:1.0;"/><text fill="#000000" font-family="sans-serif" font-size="13" lengthAdjust="spacing" textLength="23" x="730" y="419.3369">use</text></g><!--link 6443834a5d658c1675703f5d4a8f4eb1 to b86486e19bf8ab7f6de7806dc2438fad--><g id="link_6443834a5d658c1675703f5d4a8f4eb1_b86486e19bf8ab7f6de7806dc2438fad"><path codeLine="62" d="M378.31,611.86 C395.79,633.48 424.22,668.65 441.69,690.28 " fill="none" id="6443834a5d658c1675703f5d4a8f4eb1-b86486e19bf8ab7f6de7806dc2438fad" style="stroke:#181818;stroke-width:1.0;"/><text fill="#000000" font-family="sans-serif" font-size="13" lengthAdjust="spacing" textLength="14" x="416" y="656.6269">rw</text></g><!--link 6e1e2aee5073ff599ae019b9e3c10ae8 to 6443834a5d658c1675703f5d4a8f4eb1--><g id="link_6e1e2aee5073ff599ae019b9e3c10ae8_6443834a5d658c1675703f5d4a8f4eb1"><path codeLine="63" d="M314.91,206.82 C327.32,305.91 352.0542,503.5265 359.9042,566.1865 " fill="none" id="6e1e2aee5073ff599ae019b9e3c10ae8-to-6443834a5d658c1675703f5d4a8f4eb1" style="stroke:#181818;stroke-width:1.0;stroke-dasharray:7.0,7.0;"/><polygon fill="#181818" points="360.65,572.14,363.5002,562.7126,360.0285,567.1788,355.5623,563.707,360.65,572.14" style="stroke:#181818;stroke-width:1.0;"/><text fill="#000000" font-family="sans-serif" font-size="13" lengthAdjust="spacing" textLength="23" x="342" y="419.3369">use</text></g><!--link e78a84f26360fb5a2dedec923aa57d84 to e869f2dedf089d6b2e606f58bdb940fe--><g id="link_e78a84f26360fb5a2dedec923aa57d84_e869f2dedf089d6b2e606f58bdb940fe"><path codeLine="64" d="M1624,611.86 C1624,633.48 1624,668.65 1624,690.28 " fill="none" id="e78a84f26360fb5a2dedec923aa57d84-e869f2dedf089d6b2e606f58bdb940fe" style="stroke:#181818;stroke-width:1.0;"/><text fill="#000000" font-family="sans-serif" font-size="13" lengthAdjust="spacing" textLength="14" x="1625" y="656.6269">rw</text></g><!--link 56a1a6d43969594db11fb860133bfdde to e78a84f26360fb5a2dedec923aa57d84--><g id="link_56a1a6d43969594db11fb860133bfdde_e78a84f26360fb5a2dedec923aa57d84"><path codeLine="65" d="M1689.58,206.82 C1672.66,305.91 1638.909,503.5655 1628.219,566.2255 " fill="none" id="56a1a6d43969594db11fb860133bfdde-to-e78a84f26360fb5a2dedec923aa57d84" style="stroke:#181818;stroke-width:1.0;stroke-dasharray:7.0,7.0;"/><polygon fill="#181818" points="1627.21,572.14,1632.6666,563.9409,1628.0509,567.2112,1624.7805,562.5955,1627.21,572.14" style="stroke:#181818;stroke-width:1.0;"/><text fill="#000000" font-family="sans-serif" font-size="13" lengthAdjust="spacing" textLength="23" x="1656" y="419.3369">use</text></g><!--link d183f5769e455a5b87e2f8eb3d64a028 to ed44feb30fb8bab96fd89e6692aedefb--><g id="link_d183f5769e455a5b87e2f8eb3d64a028_ed44feb30fb8bab96fd89e6692aedefb"><path codeLine="66" d="M1800,611.86 C1800,633.48 1800,668.65 1800,690.28 " fill="none" id="d183f5769e455a5b87e2f8eb3d64a028-ed44feb30fb8bab96fd89e6692aedefb" style="stroke:#181818;stroke-width:1.0;"/><text fill="#000000" font-family="sans-serif" font-size="13" lengthAdjust="spacing" textLength="14" x="1801" y="656.6269">rw</text></g><!--link 56a1a6d43969594db11fb860133bfdde to d183f5769e455a5b87e2f8eb3d64a028--><g id="link_56a1a6d43969594db11fb860133bfdde_d183f5769e455a5b87e2f8eb3d64a028"><path codeLine="67" d="M1711.69,206.82 C1734.47,305.91 1779.9362,503.6324 1794.3362,566.2924 " fill="none" id="56a1a6d43969594db11fb860133bfdde-to-d183f5769e455a5b87e2f8eb3d64a028" style="stroke:#181818;stroke-width:1.0;stroke-dasharray:7.0,7.0;"/><polygon fill="#181818" points="1795.68,572.14,1797.5626,562.4727,1794.5601,567.267,1789.7659,564.2645,1795.68,572.14" style="stroke:#181818;stroke-width:1.0;"/><text fill="#000000" font-family="sans-serif" font-size="13" lengthAdjust="spacing" textLength="23" x="1762" y="419.3369">use</text></g><!--link 6434fea89d9a2babd2a581fac9c510da to 94313489f64812be256d51c6ecc28768--><g id="link_6434fea89d9a2babd2a581fac9c510da_94313489f64812be256d51c6ecc28768"><path codeLine="68" d="M1233,223.09 C1233,266.56 1233,317.29 1233,336.42 " fill="none" id="6434fea89d9a2babd2a581fac9c510da-94313489f64812be256d51c6ecc28768" style="stroke:#181818;stroke-width:1.0;"/></g><!--link 94313489f64812be256d51c6ecc28768 to 6e23fca666bced8cc41b2a8c5420fdea--><g id="link_94313489f64812be256d51c6ecc28768_6e23fca666bced8cc41b2a8c5420fdea"><path codeLine="69" d="M1233,353.91 C1233,377.56 1233,449.38 1233,473.37 " fill="none" id="94313489f64812be256d51c6ecc28768-6e23fca666bced8cc41b2a8c5420fdea" style="stroke:#181818;stroke-width:1.0;"/></g><!--SRC=[dLLTRnf757tVNx7YgKKApFVEMC4ICJIWsDZouZfLMw4xCtTiLBmRiMixKjN_tc5n32PkjwvuGSpzFFUS0wnMvUFTykkok4cAqcFQwNPzKNMxlnNltnTOFvRhFuwFEobKgUKsA6Arf6W1BSkKjeG2PyWmS1QUyeThTxjyG5j-RRAOypIZN6TC6U6LbuORpfrrYY90WFJF97NbtPUomA9EPSO3HQF1PiIJeC1OneF9P0W12FFfhqct2yyTkjqaMTx13Hwbkn_xkwz7AwYngXCi7fRhihYBBOxIuUdf-VLuj9YSv_Dyq7tvU77ruNHwifZEHkFFW_dw7bzzpcV3Ytno7jF_CMGu6Yr-dewl1p_1gZe8oSV3ovF9uiFmvDDuDbgCPn-di_6WAekb-zV0pSIBsV3ilyHU3FFy-lnoDCZBEypHhR6-WAgAz_H9ydlomuzfHnD2cXkvO2HeGuM4O2mAAxm61o8u50GvIM1TBmEuEktqFTJG90Kk00C5gGD16miORWddb2Eoa85F_lgE48lAtQA_N-6wgG3CU0dIYY0WeyfQahd8BOPI464pzP8Q2YaoG9GaSYH8Om09DTOWTvG0wWDgx7hzBvBCfsVZywlvW3AoWUir09GGN4SGf5TIEweocH4Uf1UWWq1Bdm78DyVQIiXA8OqDr53ElF2ESa6K58vc4JaV3iIWW8BoWXjbP1IFfJHOhGZbKOa-Ljvit31XRyK7Y2ileQXWjIpl-ytpgnk-ZIzx063jjcLxBjmqQs6cGOl055SaM0dCeqTd60UGcTTYF_i1rltLqcuhzAkwN6DJmrCTmSkKGI4tfD1Pf956oxqIKVdw6SrP-L1iqHJW1D78PUQiZh0xmudNX7jkX6Fk04qbk0WOQUuDC0lMiqXT6gSoJbBYeK6ps1JVGxE-HQY-z9kVNqLnDCqlJeU_BAwde_baG4saowlla_7quoJIYUY3WCkhsUBpV7nvDYZAdJ3rLfX6H3q9RO8IcZABJ4O3fKwXSqn7_usWl10oLKmumGZHt30TNHcP8Dvh7QAeM21DD6LPZyGFVMwZC9gi0wMKTUYrSu9Q1jh9M2fuXBtxzNRyZrGKEgeoyddZrq7vo0EYl6DH5o4Qm7xM0M6qCc73aa3YFLIKl28gI6szDO84_AxXDd-RwqMye-MHQJgUqQZWjK6bJ3G7Zy4chVyXx_oxTijh2sYgjEBTPf9DbJOWqwEqitxij2_Mw_bUxxZLcJVrxYli96qEzgRfMltvQRhMfj-cQtELPhes9ZrZr-QbJzErDlqsNPjVRQThuUfRfsjjkhjiYzbjfcjrbxQ0fagRUVmD]--></g></svg>